<mxfile host="app.diagrams.net" modified="2023-11-10T00:57:27.262Z" agent="Mozilla/5.0 (Windows NT 10.0; Win64; x64) AppleWebKit/537.36 (KHTML, like Gecko) Chrome/116.0.0.0 Safari/537.36 OPR/102.0.0.0" etag="Hy6dIgIPmuNprNSYEI3b" version="22.1.0" type="google">
  <diagram name="PÃ¡gina-1" id="tuRblkUsZeNq5yNyot8s">
    <mxGraphModel grid="1" page="1" gridSize="10" guides="1" tooltips="1" connect="1" arrows="1" fold="1" pageScale="1" pageWidth="1169" pageHeight="827" math="0" shadow="0">
      <root>
        <mxCell id="0" />
        <mxCell id="1" parent="0" />
        <mxCell id="L45TqJN0GfBYJ_7hLNDy-1" value="USUARIO" style="whiteSpace=wrap;html=1;align=center;" vertex="1" parent="1">
          <mxGeometry x="130" y="770" width="100" height="40" as="geometry" />
        </mxCell>
        <mxCell id="L45TqJN0GfBYJ_7hLNDy-2" value="DenominacionNombreApellido" style="ellipse;whiteSpace=wrap;html=1;align=center;" vertex="1" parent="1">
          <mxGeometry x="10" y="680" width="100" height="40" as="geometry" />
        </mxCell>
        <mxCell id="L45TqJN0GfBYJ_7hLNDy-3" value="CuitUsuario" style="ellipse;whiteSpace=wrap;html=1;align=center;fontStyle=4;" vertex="1" parent="1">
          <mxGeometry y="730" width="100" height="40" as="geometry" />
        </mxCell>
        <mxCell id="L45TqJN0GfBYJ_7hLNDy-4" value="CLIENTE" style="whiteSpace=wrap;html=1;align=center;" vertex="1" parent="1">
          <mxGeometry x="130" y="75" width="100" height="40" as="geometry" />
        </mxCell>
        <mxCell id="L45TqJN0GfBYJ_7hLNDy-6" value="CuitCliente" style="ellipse;whiteSpace=wrap;html=1;align=center;fontStyle=4;" vertex="1" parent="1">
          <mxGeometry x="60" y="5" width="100" height="40" as="geometry" />
        </mxCell>
        <mxCell id="L45TqJN0GfBYJ_7hLNDy-7" value="SERVICIO" style="whiteSpace=wrap;html=1;align=center;" vertex="1" parent="1">
          <mxGeometry x="699" y="287" width="100" height="40" as="geometry" />
        </mxCell>
        <mxCell id="L45TqJN0GfBYJ_7hLNDy-8" value="DenominacionServicio" style="ellipse;whiteSpace=wrap;html=1;align=center;" vertex="1" parent="1">
          <mxGeometry x="584" y="260" width="100" height="40" as="geometry" />
        </mxCell>
        <mxCell id="L45TqJN0GfBYJ_7hLNDy-9" value="IdServicio" style="ellipse;whiteSpace=wrap;html=1;align=center;fontStyle=4;" vertex="1" parent="1">
          <mxGeometry x="584" y="310" width="100" height="40" as="geometry" />
        </mxCell>
        <mxCell id="L45TqJN0GfBYJ_7hLNDy-10" value="PRODUCTO" style="whiteSpace=wrap;html=1;align=center;" vertex="1" parent="1">
          <mxGeometry x="1114" y="287" width="100" height="40" as="geometry" />
        </mxCell>
        <mxCell id="L45TqJN0GfBYJ_7hLNDy-11" value="CantidadDisponible" style="ellipse;whiteSpace=wrap;html=1;align=center;" vertex="1" parent="1">
          <mxGeometry x="1281.5" y="237" width="100" height="40" as="geometry" />
        </mxCell>
        <mxCell id="L45TqJN0GfBYJ_7hLNDy-12" value="IdProducto" style="ellipse;whiteSpace=wrap;html=1;align=center;fontStyle=4;" vertex="1" parent="1">
          <mxGeometry x="1281.5" y="337" width="100" height="40" as="geometry" />
        </mxCell>
        <mxCell id="L45TqJN0GfBYJ_7hLNDy-16" value="ClavePass" style="ellipse;whiteSpace=wrap;html=1;align=center;" vertex="1" parent="1">
          <mxGeometry x="10" y="780" width="100" height="40" as="geometry" />
        </mxCell>
        <mxCell id="L45TqJN0GfBYJ_7hLNDy-17" value="PrecioHora" style="ellipse;whiteSpace=wrap;html=1;align=center;" vertex="1" parent="1">
          <mxGeometry x="814" y="310" width="100" height="40" as="geometry" />
        </mxCell>
        <mxCell id="L45TqJN0GfBYJ_7hLNDy-20" value="PrecioUnitario" style="ellipse;whiteSpace=wrap;html=1;align=center;" vertex="1" parent="1">
          <mxGeometry x="989" y="337" width="100" height="40" as="geometry" />
        </mxCell>
        <mxCell id="L45TqJN0GfBYJ_7hLNDy-21" value="CantidadVendida" style="ellipse;whiteSpace=wrap;html=1;align=center;" vertex="1" parent="1">
          <mxGeometry x="1294" y="287" width="100" height="40" as="geometry" />
        </mxCell>
        <mxCell id="L45TqJN0GfBYJ_7hLNDy-22" value="DenominacionProducto" style="ellipse;whiteSpace=wrap;html=1;align=center;" vertex="1" parent="1">
          <mxGeometry x="974" y="287" width="100" height="40" as="geometry" />
        </mxCell>
        <mxCell id="L45TqJN0GfBYJ_7hLNDy-23" value="TipoEmpresa:Persona/Empresa" style="ellipse;whiteSpace=wrap;html=1;align=center;" vertex="1" parent="1">
          <mxGeometry x="200" y="5" width="100" height="40" as="geometry" />
        </mxCell>
        <mxCell id="L45TqJN0GfBYJ_7hLNDy-32" value="COMPRA&lt;br&gt;" style="whiteSpace=wrap;html=1;align=center;" vertex="1" parent="1">
          <mxGeometry x="580" y="580" width="100" height="40" as="geometry" />
        </mxCell>
        <mxCell id="L45TqJN0GfBYJ_7hLNDy-34" value="IdOperacion" style="ellipse;whiteSpace=wrap;html=1;align=center;fontStyle=4;" vertex="1" parent="1">
          <mxGeometry x="480" y="680" width="100" height="40" as="geometry" />
        </mxCell>
        <mxCell id="L45TqJN0GfBYJ_7hLNDy-36" value="TipoComprador" style="ellipse;whiteSpace=wrap;html=1;align=center;" vertex="1" parent="1">
          <mxGeometry x="770" y="580" width="100" height="40" as="geometry" />
        </mxCell>
        <mxCell id="L45TqJN0GfBYJ_7hLNDy-37" value="TotalOperacion" style="ellipse;whiteSpace=wrap;html=1;align=center;" vertex="1" parent="1">
          <mxGeometry x="540" y="730" width="100" height="40" as="geometry" />
        </mxCell>
        <mxCell id="L45TqJN0GfBYJ_7hLNDy-38" value="PrecioUnitarioOperacion" style="ellipse;whiteSpace=wrap;html=1;align=center;" vertex="1" parent="1">
          <mxGeometry x="720" y="680" width="100" height="40" as="geometry" />
        </mxCell>
        <mxCell id="L45TqJN0GfBYJ_7hLNDy-39" value="CantidadProducto_HorasServicio&lt;br&gt;" style="ellipse;whiteSpace=wrap;html=1;align=center;" vertex="1" parent="1">
          <mxGeometry x="750" y="630" width="100" height="40" as="geometry" />
        </mxCell>
        <mxCell id="L45TqJN0GfBYJ_7hLNDy-40" value="Iva" style="ellipse;whiteSpace=wrap;html=1;align=center;" vertex="1" parent="1">
          <mxGeometry x="650" y="730" width="100" height="40" as="geometry" />
        </mxCell>
        <mxCell id="L45TqJN0GfBYJ_7hLNDy-41" value="FechaOperacion" style="ellipse;whiteSpace=wrap;html=1;align=center;" vertex="1" parent="1">
          <mxGeometry x="750" y="530" width="100" height="40" as="geometry" />
        </mxCell>
        <mxCell id="L45TqJN0GfBYJ_7hLNDy-45" value="DenominacionNombreApellido" style="ellipse;whiteSpace=wrap;html=1;align=center;" vertex="1" parent="1">
          <mxGeometry x="270" y="55" width="100" height="40" as="geometry" />
        </mxCell>
        <mxCell id="L45TqJN0GfBYJ_7hLNDy-46" value="Ofrece" style="shape=rhombus;perimeter=rhombusPerimeter;whiteSpace=wrap;html=1;align=center;" vertex="1" parent="1">
          <mxGeometry x="904" y="760" width="120" height="60" as="geometry" />
        </mxCell>
        <mxCell id="L45TqJN0GfBYJ_7hLNDy-47" value="Tiene" style="shape=rhombus;perimeter=rhombusPerimeter;whiteSpace=wrap;html=1;align=center;" vertex="1" parent="1">
          <mxGeometry x="120" y="290" width="120" height="60" as="geometry" />
        </mxCell>
        <mxCell id="L45TqJN0GfBYJ_7hLNDy-49" value="Realiza" style="shape=rhombus;perimeter=rhombusPerimeter;whiteSpace=wrap;html=1;align=center;" vertex="1" parent="1">
          <mxGeometry x="230" y="370" width="120" height="60" as="geometry" />
        </mxCell>
        <mxCell id="L45TqJN0GfBYJ_7hLNDy-51" value="CuitUsuario" style="ellipse;shape=doubleEllipse;margin=3;whiteSpace=wrap;html=1;align=center;" vertex="1" parent="1">
          <mxGeometry y="55" width="100" height="40" as="geometry" />
        </mxCell>
        <mxCell id="L45TqJN0GfBYJ_7hLNDy-52" value="CuitUsuario" style="ellipse;shape=doubleEllipse;margin=3;whiteSpace=wrap;html=1;align=center;" vertex="1" parent="1">
          <mxGeometry x="470" y="480" width="100" height="40" as="geometry" />
        </mxCell>
        <mxCell id="L45TqJN0GfBYJ_7hLNDy-53" value="CuitUsuario" style="ellipse;shape=doubleEllipse;margin=3;whiteSpace=wrap;html=1;align=center;" vertex="1" parent="1">
          <mxGeometry x="814" y="260" width="100" height="40" as="geometry" />
        </mxCell>
        <mxCell id="L45TqJN0GfBYJ_7hLNDy-54" value="CuitUsuario" style="ellipse;shape=doubleEllipse;margin=3;whiteSpace=wrap;html=1;align=center;" vertex="1" parent="1">
          <mxGeometry x="979" y="237" width="100" height="40" as="geometry" />
        </mxCell>
        <mxCell id="L45TqJN0GfBYJ_7hLNDy-55" value="CuitCliente" style="ellipse;shape=doubleEllipse;margin=3;whiteSpace=wrap;html=1;align=center;" vertex="1" parent="1">
          <mxGeometry x="550" y="430" width="100" height="40" as="geometry" />
        </mxCell>
        <mxCell id="L45TqJN0GfBYJ_7hLNDy-56" value="IdProducto" style="ellipse;shape=doubleEllipse;margin=3;whiteSpace=wrap;html=1;align=center;" vertex="1" parent="1">
          <mxGeometry x="740" y="470" width="100" height="40" as="geometry" />
        </mxCell>
        <mxCell id="L45TqJN0GfBYJ_7hLNDy-57" value="IdServicio" style="ellipse;shape=doubleEllipse;margin=3;whiteSpace=wrap;html=1;align=center;" vertex="1" parent="1">
          <mxGeometry x="660" y="430" width="100" height="40" as="geometry" />
        </mxCell>
        <mxCell id="L45TqJN0GfBYJ_7hLNDy-65" value="" style="shape=link;html=1;rounded=0;entryX=0.25;entryY=0;entryDx=0;entryDy=0;exitX=1;exitY=1;exitDx=0;exitDy=0;" edge="1" parent="1" source="L45TqJN0GfBYJ_7hLNDy-52" target="L45TqJN0GfBYJ_7hLNDy-32">
          <mxGeometry relative="1" as="geometry">
            <mxPoint x="480" y="549.5" as="sourcePoint" />
            <mxPoint x="640" y="549.5" as="targetPoint" />
          </mxGeometry>
        </mxCell>
        <mxCell id="L45TqJN0GfBYJ_7hLNDy-68" value="" style="shape=link;html=1;rounded=0;entryX=0.5;entryY=0;entryDx=0;entryDy=0;" edge="1" parent="1" source="L45TqJN0GfBYJ_7hLNDy-55" target="L45TqJN0GfBYJ_7hLNDy-32">
          <mxGeometry relative="1" as="geometry">
            <mxPoint x="290" y="720" as="sourcePoint" />
            <mxPoint x="450" y="720" as="targetPoint" />
          </mxGeometry>
        </mxCell>
        <mxCell id="L45TqJN0GfBYJ_7hLNDy-69" value="" style="shape=link;html=1;rounded=0;entryX=0.75;entryY=0;entryDx=0;entryDy=0;exitX=0.5;exitY=1;exitDx=0;exitDy=0;" edge="1" parent="1" source="L45TqJN0GfBYJ_7hLNDy-57" target="L45TqJN0GfBYJ_7hLNDy-32">
          <mxGeometry relative="1" as="geometry">
            <mxPoint x="300" y="730" as="sourcePoint" />
            <mxPoint x="460" y="730" as="targetPoint" />
          </mxGeometry>
        </mxCell>
        <mxCell id="L45TqJN0GfBYJ_7hLNDy-70" value="" style="shape=link;html=1;rounded=0;entryX=1;entryY=0.5;entryDx=0;entryDy=0;exitX=0;exitY=0.5;exitDx=0;exitDy=0;" edge="1" parent="1" source="L45TqJN0GfBYJ_7hLNDy-36" target="L45TqJN0GfBYJ_7hLNDy-32">
          <mxGeometry relative="1" as="geometry">
            <mxPoint x="310" y="740" as="sourcePoint" />
            <mxPoint x="470" y="740" as="targetPoint" />
          </mxGeometry>
        </mxCell>
        <mxCell id="L45TqJN0GfBYJ_7hLNDy-71" value="" style="shape=link;html=1;rounded=0;entryX=1;entryY=0.25;entryDx=0;entryDy=0;exitX=0;exitY=0.5;exitDx=0;exitDy=0;" edge="1" parent="1" source="L45TqJN0GfBYJ_7hLNDy-41" target="L45TqJN0GfBYJ_7hLNDy-32">
          <mxGeometry relative="1" as="geometry">
            <mxPoint x="320" y="750" as="sourcePoint" />
            <mxPoint x="480" y="750" as="targetPoint" />
          </mxGeometry>
        </mxCell>
        <mxCell id="L45TqJN0GfBYJ_7hLNDy-72" value="" style="shape=link;html=1;rounded=0;entryX=1;entryY=0;entryDx=0;entryDy=0;exitX=0;exitY=0.5;exitDx=0;exitDy=0;" edge="1" parent="1" source="L45TqJN0GfBYJ_7hLNDy-56" target="L45TqJN0GfBYJ_7hLNDy-32">
          <mxGeometry relative="1" as="geometry">
            <mxPoint x="330" y="760" as="sourcePoint" />
            <mxPoint x="490" y="760" as="targetPoint" />
          </mxGeometry>
        </mxCell>
        <mxCell id="L45TqJN0GfBYJ_7hLNDy-73" value="" style="shape=link;html=1;rounded=0;entryX=1;entryY=0.75;entryDx=0;entryDy=0;exitX=0;exitY=0.5;exitDx=0;exitDy=0;" edge="1" parent="1" source="L45TqJN0GfBYJ_7hLNDy-39" target="L45TqJN0GfBYJ_7hLNDy-32">
          <mxGeometry relative="1" as="geometry">
            <mxPoint x="340" y="770" as="sourcePoint" />
            <mxPoint x="500" y="770" as="targetPoint" />
          </mxGeometry>
        </mxCell>
        <mxCell id="L45TqJN0GfBYJ_7hLNDy-74" value="" style="shape=link;html=1;rounded=0;entryX=1;entryY=1;entryDx=0;entryDy=0;exitX=0;exitY=0.5;exitDx=0;exitDy=0;" edge="1" parent="1" source="L45TqJN0GfBYJ_7hLNDy-38" target="L45TqJN0GfBYJ_7hLNDy-32">
          <mxGeometry relative="1" as="geometry">
            <mxPoint x="350" y="780" as="sourcePoint" />
            <mxPoint x="510" y="780" as="targetPoint" />
          </mxGeometry>
        </mxCell>
        <mxCell id="L45TqJN0GfBYJ_7hLNDy-75" value="" style="shape=link;html=1;rounded=0;entryX=0.75;entryY=1;entryDx=0;entryDy=0;exitX=0.5;exitY=0;exitDx=0;exitDy=0;" edge="1" parent="1" source="L45TqJN0GfBYJ_7hLNDy-40" target="L45TqJN0GfBYJ_7hLNDy-32">
          <mxGeometry relative="1" as="geometry">
            <mxPoint x="360" y="790" as="sourcePoint" />
            <mxPoint x="520" y="790" as="targetPoint" />
          </mxGeometry>
        </mxCell>
        <mxCell id="L45TqJN0GfBYJ_7hLNDy-76" value="" style="shape=link;html=1;rounded=0;entryX=0.5;entryY=1;entryDx=0;entryDy=0;exitX=1;exitY=0;exitDx=0;exitDy=0;" edge="1" parent="1" source="L45TqJN0GfBYJ_7hLNDy-37" target="L45TqJN0GfBYJ_7hLNDy-32">
          <mxGeometry relative="1" as="geometry">
            <mxPoint x="370" y="800" as="sourcePoint" />
            <mxPoint x="530" y="800" as="targetPoint" />
          </mxGeometry>
        </mxCell>
        <mxCell id="L45TqJN0GfBYJ_7hLNDy-77" value="" style="shape=link;html=1;rounded=0;entryX=0.25;entryY=1;entryDx=0;entryDy=0;exitX=1;exitY=0;exitDx=0;exitDy=0;" edge="1" parent="1" source="L45TqJN0GfBYJ_7hLNDy-34" target="L45TqJN0GfBYJ_7hLNDy-32">
          <mxGeometry relative="1" as="geometry">
            <mxPoint x="380" y="810" as="sourcePoint" />
            <mxPoint x="540" y="810" as="targetPoint" />
          </mxGeometry>
        </mxCell>
        <mxCell id="L45TqJN0GfBYJ_7hLNDy-78" value="" style="shape=link;html=1;rounded=0;entryX=0.75;entryY=0;entryDx=0;entryDy=0;exitX=0;exitY=1;exitDx=0;exitDy=0;" edge="1" parent="1" source="L45TqJN0GfBYJ_7hLNDy-23" target="L45TqJN0GfBYJ_7hLNDy-4">
          <mxGeometry relative="1" as="geometry">
            <mxPoint x="150" y="155" as="sourcePoint" />
            <mxPoint x="310" y="155" as="targetPoint" />
          </mxGeometry>
        </mxCell>
        <mxCell id="L45TqJN0GfBYJ_7hLNDy-79" value="" style="shape=link;html=1;rounded=0;entryX=0.25;entryY=0;entryDx=0;entryDy=0;exitX=1;exitY=1;exitDx=0;exitDy=0;" edge="1" parent="1" source="L45TqJN0GfBYJ_7hLNDy-6" target="L45TqJN0GfBYJ_7hLNDy-4">
          <mxGeometry relative="1" as="geometry">
            <mxPoint x="115" y="195" as="sourcePoint" />
            <mxPoint x="275" y="195" as="targetPoint" />
          </mxGeometry>
        </mxCell>
        <mxCell id="L45TqJN0GfBYJ_7hLNDy-80" value="" style="shape=link;html=1;rounded=0;entryX=1;entryY=0.5;entryDx=0;entryDy=0;exitX=0;exitY=1;exitDx=0;exitDy=0;" edge="1" parent="1" source="L45TqJN0GfBYJ_7hLNDy-45" target="L45TqJN0GfBYJ_7hLNDy-4">
          <mxGeometry relative="1" as="geometry">
            <mxPoint x="125" y="205" as="sourcePoint" />
            <mxPoint x="285" y="205" as="targetPoint" />
          </mxGeometry>
        </mxCell>
        <mxCell id="L45TqJN0GfBYJ_7hLNDy-81" value="" style="shape=link;html=1;rounded=0;entryX=0;entryY=0.5;entryDx=0;entryDy=0;exitX=1;exitY=1;exitDx=0;exitDy=0;" edge="1" parent="1" source="L45TqJN0GfBYJ_7hLNDy-51" target="L45TqJN0GfBYJ_7hLNDy-4">
          <mxGeometry relative="1" as="geometry">
            <mxPoint x="135" y="215" as="sourcePoint" />
            <mxPoint x="295" y="215" as="targetPoint" />
          </mxGeometry>
        </mxCell>
        <mxCell id="L45TqJN0GfBYJ_7hLNDy-82" value="" style="shape=link;html=1;rounded=0;exitX=0;exitY=0;exitDx=0;exitDy=0;entryX=1;entryY=1;entryDx=0;entryDy=0;" edge="1" parent="1" source="L45TqJN0GfBYJ_7hLNDy-1" target="L45TqJN0GfBYJ_7hLNDy-2">
          <mxGeometry relative="1" as="geometry">
            <mxPoint x="455" y="814" as="sourcePoint" />
            <mxPoint x="615" y="814" as="targetPoint" />
            <Array as="points" />
          </mxGeometry>
        </mxCell>
        <mxCell id="L45TqJN0GfBYJ_7hLNDy-83" value="" style="shape=link;html=1;rounded=0;entryX=1;entryY=0.5;entryDx=0;entryDy=0;exitX=0;exitY=0.75;exitDx=0;exitDy=0;" edge="1" parent="1" source="L45TqJN0GfBYJ_7hLNDy-1" target="L45TqJN0GfBYJ_7hLNDy-16">
          <mxGeometry relative="1" as="geometry">
            <mxPoint x="205" y="824" as="sourcePoint" />
            <mxPoint x="625" y="824" as="targetPoint" />
          </mxGeometry>
        </mxCell>
        <mxCell id="L45TqJN0GfBYJ_7hLNDy-84" value="" style="shape=link;html=1;rounded=0;entryX=0;entryY=0.5;entryDx=0;entryDy=0;exitX=1;exitY=1;exitDx=0;exitDy=0;" edge="1" parent="1" source="L45TqJN0GfBYJ_7hLNDy-3" target="L45TqJN0GfBYJ_7hLNDy-1">
          <mxGeometry relative="1" as="geometry">
            <mxPoint x="90" y="760" as="sourcePoint" />
            <mxPoint x="635" y="834" as="targetPoint" />
          </mxGeometry>
        </mxCell>
        <mxCell id="L45TqJN0GfBYJ_7hLNDy-85" value="" style="shape=link;html=1;rounded=0;exitX=0;exitY=0.75;exitDx=0;exitDy=0;entryX=1;entryY=0.5;entryDx=0;entryDy=0;" edge="1" parent="1" source="L45TqJN0GfBYJ_7hLNDy-7" target="L45TqJN0GfBYJ_7hLNDy-9">
          <mxGeometry relative="1" as="geometry">
            <mxPoint x="704" y="302" as="sourcePoint" />
            <mxPoint x="1014" y="222" as="targetPoint" />
          </mxGeometry>
        </mxCell>
        <mxCell id="L45TqJN0GfBYJ_7hLNDy-86" value="" style="shape=link;html=1;rounded=0;exitX=1;exitY=0.75;exitDx=0;exitDy=0;entryX=0;entryY=0.5;entryDx=0;entryDy=0;" edge="1" parent="1" source="L45TqJN0GfBYJ_7hLNDy-7" target="L45TqJN0GfBYJ_7hLNDy-17">
          <mxGeometry relative="1" as="geometry">
            <mxPoint x="864" y="247" as="sourcePoint" />
            <mxPoint x="1024" y="247" as="targetPoint" />
          </mxGeometry>
        </mxCell>
        <mxCell id="L45TqJN0GfBYJ_7hLNDy-87" value="" style="shape=link;html=1;rounded=0;exitX=1;exitY=0.25;exitDx=0;exitDy=0;entryX=0;entryY=0.5;entryDx=0;entryDy=0;" edge="1" parent="1" source="L45TqJN0GfBYJ_7hLNDy-7" target="L45TqJN0GfBYJ_7hLNDy-53">
          <mxGeometry relative="1" as="geometry">
            <mxPoint x="874" y="257" as="sourcePoint" />
            <mxPoint x="1034" y="257" as="targetPoint" />
          </mxGeometry>
        </mxCell>
        <mxCell id="L45TqJN0GfBYJ_7hLNDy-88" value="" style="shape=link;html=1;rounded=0;entryX=0;entryY=0.25;entryDx=0;entryDy=0;exitX=1;exitY=0.5;exitDx=0;exitDy=0;" edge="1" parent="1" source="L45TqJN0GfBYJ_7hLNDy-8" target="L45TqJN0GfBYJ_7hLNDy-7">
          <mxGeometry relative="1" as="geometry">
            <mxPoint x="884" y="252" as="sourcePoint" />
            <mxPoint x="704" y="282" as="targetPoint" />
          </mxGeometry>
        </mxCell>
        <mxCell id="L45TqJN0GfBYJ_7hLNDy-90" value="" style="shape=link;html=1;rounded=0;entryX=1;entryY=0.75;entryDx=0;entryDy=0;exitX=0;exitY=0.5;exitDx=0;exitDy=0;" edge="1" parent="1" source="L45TqJN0GfBYJ_7hLNDy-12" target="L45TqJN0GfBYJ_7hLNDy-10">
          <mxGeometry relative="1" as="geometry">
            <mxPoint x="941.5" y="261" as="sourcePoint" />
            <mxPoint x="1226.5" y="311" as="targetPoint" />
          </mxGeometry>
        </mxCell>
        <mxCell id="L45TqJN0GfBYJ_7hLNDy-91" value="" style="shape=link;html=1;rounded=0;entryX=0;entryY=0.75;entryDx=0;entryDy=0;exitX=1;exitY=0.5;exitDx=0;exitDy=0;" edge="1" parent="1" source="L45TqJN0GfBYJ_7hLNDy-20" target="L45TqJN0GfBYJ_7hLNDy-10">
          <mxGeometry relative="1" as="geometry">
            <mxPoint x="879" y="271" as="sourcePoint" />
            <mxPoint x="1104" y="311" as="targetPoint" />
          </mxGeometry>
        </mxCell>
        <mxCell id="L45TqJN0GfBYJ_7hLNDy-92" value="" style="shape=link;html=1;rounded=0;entryX=0;entryY=0.25;entryDx=0;entryDy=0;exitX=1;exitY=0.5;exitDx=0;exitDy=0;" edge="1" parent="1" source="L45TqJN0GfBYJ_7hLNDy-54" target="L45TqJN0GfBYJ_7hLNDy-10">
          <mxGeometry relative="1" as="geometry">
            <mxPoint x="889" y="281" as="sourcePoint" />
            <mxPoint x="1079" y="291" as="targetPoint" />
          </mxGeometry>
        </mxCell>
        <mxCell id="L45TqJN0GfBYJ_7hLNDy-93" value="" style="shape=link;html=1;rounded=0;entryX=1;entryY=0.25;entryDx=0;entryDy=0;exitX=0;exitY=0.5;exitDx=0;exitDy=0;" edge="1" parent="1" source="L45TqJN0GfBYJ_7hLNDy-11" target="L45TqJN0GfBYJ_7hLNDy-10">
          <mxGeometry relative="1" as="geometry">
            <mxPoint x="971.5" y="291" as="sourcePoint" />
            <mxPoint x="1251.5" y="291" as="targetPoint" />
          </mxGeometry>
        </mxCell>
        <mxCell id="L45TqJN0GfBYJ_7hLNDy-94" value="" style="shape=link;html=1;rounded=0;entryX=1;entryY=0.5;entryDx=0;entryDy=0;exitX=0;exitY=0.5;exitDx=0;exitDy=0;" edge="1" parent="1" source="L45TqJN0GfBYJ_7hLNDy-21" target="L45TqJN0GfBYJ_7hLNDy-10">
          <mxGeometry relative="1" as="geometry">
            <mxPoint x="981.5" y="301" as="sourcePoint" />
            <mxPoint x="1251.5" y="311" as="targetPoint" />
          </mxGeometry>
        </mxCell>
        <mxCell id="L45TqJN0GfBYJ_7hLNDy-95" value="" style="shape=link;html=1;rounded=0;exitX=1;exitY=0.5;exitDx=0;exitDy=0;entryX=0;entryY=0.5;entryDx=0;entryDy=0;" edge="1" parent="1" source="L45TqJN0GfBYJ_7hLNDy-22" target="L45TqJN0GfBYJ_7hLNDy-10">
          <mxGeometry relative="1" as="geometry">
            <mxPoint x="919" y="311" as="sourcePoint" />
            <mxPoint x="1079" y="311" as="targetPoint" />
            <Array as="points" />
          </mxGeometry>
        </mxCell>
        <mxCell id="L45TqJN0GfBYJ_7hLNDy-97" value="" style="shape=link;html=1;rounded=0;entryX=0.5;entryY=1;entryDx=0;entryDy=0;exitX=0.5;exitY=0;exitDx=0;exitDy=0;" edge="1" parent="1" source="L45TqJN0GfBYJ_7hLNDy-47" target="L45TqJN0GfBYJ_7hLNDy-4">
          <mxGeometry relative="1" as="geometry">
            <mxPoint x="140" y="229.5" as="sourcePoint" />
            <mxPoint x="300" y="229.5" as="targetPoint" />
          </mxGeometry>
        </mxCell>
        <mxCell id="L45TqJN0GfBYJ_7hLNDy-98" value="" style="shape=link;html=1;rounded=0;exitX=0.5;exitY=0;exitDx=0;exitDy=0;entryX=0.5;entryY=1;entryDx=0;entryDy=0;" edge="1" parent="1" source="L45TqJN0GfBYJ_7hLNDy-1" target="L45TqJN0GfBYJ_7hLNDy-47">
          <mxGeometry relative="1" as="geometry">
            <mxPoint x="410" y="229.5" as="sourcePoint" />
            <mxPoint x="570" y="229.5" as="targetPoint" />
          </mxGeometry>
        </mxCell>
        <mxCell id="L45TqJN0GfBYJ_7hLNDy-100" value="" style="shape=link;html=1;rounded=0;entryX=0;entryY=0.5;entryDx=0;entryDy=0;exitX=1;exitY=0.5;exitDx=0;exitDy=0;" edge="1" parent="1" source="L45TqJN0GfBYJ_7hLNDy-1" target="L45TqJN0GfBYJ_7hLNDy-46">
          <mxGeometry relative="1" as="geometry">
            <mxPoint x="399.99999999999955" y="710" as="sourcePoint" />
            <mxPoint x="750" y="349.5" as="targetPoint" />
          </mxGeometry>
        </mxCell>
        <mxCell id="L45TqJN0GfBYJ_7hLNDy-101" value="" style="shape=link;html=1;rounded=0;entryX=1;entryY=0;entryDx=0;entryDy=0;exitX=0.5;exitY=1;exitDx=0;exitDy=0;" edge="1" parent="1" source="L45TqJN0GfBYJ_7hLNDy-10" target="L45TqJN0GfBYJ_7hLNDy-46">
          <mxGeometry relative="1" as="geometry">
            <mxPoint x="774" y="129.5" as="sourcePoint" />
            <mxPoint x="934" y="129.5" as="targetPoint" />
            <Array as="points">
              <mxPoint x="1164" y="400" />
              <mxPoint x="1000" y="400" />
            </Array>
          </mxGeometry>
        </mxCell>
        <mxCell id="L45TqJN0GfBYJ_7hLNDy-102" value="" style="shape=link;html=1;rounded=0;entryX=0;entryY=0;entryDx=0;entryDy=0;exitX=0.5;exitY=1;exitDx=0;exitDy=0;" edge="1" parent="1" source="L45TqJN0GfBYJ_7hLNDy-7" target="L45TqJN0GfBYJ_7hLNDy-46">
          <mxGeometry relative="1" as="geometry">
            <mxPoint x="784" y="139.5" as="sourcePoint" />
            <mxPoint x="944" y="139.5" as="targetPoint" />
            <Array as="points">
              <mxPoint x="749" y="400" />
              <mxPoint x="930" y="400" />
            </Array>
          </mxGeometry>
        </mxCell>
        <mxCell id="L45TqJN0GfBYJ_7hLNDy-103" value="" style="shape=link;html=1;rounded=0;entryX=0.5;entryY=0;entryDx=0;entryDy=0;exitX=0.75;exitY=1;exitDx=0;exitDy=0;" edge="1" parent="1" source="L45TqJN0GfBYJ_7hLNDy-4" target="L45TqJN0GfBYJ_7hLNDy-49">
          <mxGeometry relative="1" as="geometry">
            <mxPoint x="450" y="269.5" as="sourcePoint" />
            <mxPoint x="610" y="269.5" as="targetPoint" />
            <Array as="points">
              <mxPoint x="205" y="160" />
              <mxPoint x="290" y="160" />
              <mxPoint x="290" y="270" />
            </Array>
          </mxGeometry>
        </mxCell>
        <mxCell id="L45TqJN0GfBYJ_7hLNDy-104" value="" style="shape=link;html=1;rounded=0;entryX=0.5;entryY=0;entryDx=0;entryDy=0;exitX=1;exitY=1;exitDx=0;exitDy=0;" edge="1" parent="1" source="L45TqJN0GfBYJ_7hLNDy-110" target="L45TqJN0GfBYJ_7hLNDy-10">
          <mxGeometry relative="1" as="geometry">
            <mxPoint x="1014" y="190" as="sourcePoint" />
            <mxPoint x="964" y="159.5" as="targetPoint" />
            <Array as="points">
              <mxPoint x="994" y="200" />
              <mxPoint x="1164" y="200" />
            </Array>
          </mxGeometry>
        </mxCell>
        <mxCell id="L45TqJN0GfBYJ_7hLNDy-105" value="" style="shape=link;html=1;rounded=0;exitX=0.5;exitY=0;exitDx=0;exitDy=0;entryX=0;entryY=1;entryDx=0;entryDy=0;" edge="1" parent="1" source="L45TqJN0GfBYJ_7hLNDy-7" target="L45TqJN0GfBYJ_7hLNDy-110">
          <mxGeometry relative="1" as="geometry">
            <mxPoint x="814" y="169.5" as="sourcePoint" />
            <mxPoint x="904" y="190" as="targetPoint" />
            <Array as="points">
              <mxPoint x="750" y="200" />
              <mxPoint x="934" y="200" />
            </Array>
          </mxGeometry>
        </mxCell>
        <mxCell id="L45TqJN0GfBYJ_7hLNDy-109" value="" style="shape=link;html=1;rounded=0;exitX=0;exitY=0.5;exitDx=0;exitDy=0;entryX=0;entryY=0.25;entryDx=0;entryDy=0;" edge="1" parent="1" source="L45TqJN0GfBYJ_7hLNDy-110" target="L45TqJN0GfBYJ_7hLNDy-32">
          <mxGeometry relative="1" as="geometry">
            <mxPoint x="730" y="200" as="sourcePoint" />
            <mxPoint x="440" y="560" as="targetPoint" />
            <Array as="points">
              <mxPoint x="780" y="160" />
              <mxPoint x="450" y="160" />
              <mxPoint x="450" y="540" />
            </Array>
          </mxGeometry>
        </mxCell>
        <mxCell id="L45TqJN0GfBYJ_7hLNDy-110" value="Contiene" style="shape=rhombus;perimeter=rhombusPerimeter;whiteSpace=wrap;html=1;align=center;" vertex="1" parent="1">
          <mxGeometry x="904" y="130" width="120" height="60" as="geometry" />
        </mxCell>
        <mxCell id="L45TqJN0GfBYJ_7hLNDy-111" style="edgeStyle=orthogonalEdgeStyle;rounded=0;orthogonalLoop=1;jettySize=auto;html=1;exitX=0.5;exitY=1;exitDx=0;exitDy=0;" edge="1" parent="1" source="L45TqJN0GfBYJ_7hLNDy-17" target="L45TqJN0GfBYJ_7hLNDy-17">
          <mxGeometry relative="1" as="geometry" />
        </mxCell>
        <mxCell id="L45TqJN0GfBYJ_7hLNDy-115" value="Registra" style="shape=rhombus;perimeter=rhombusPerimeter;whiteSpace=wrap;html=1;align=center;" vertex="1" parent="1">
          <mxGeometry x="290" y="690" width="120" height="60" as="geometry" />
        </mxCell>
        <mxCell id="L45TqJN0GfBYJ_7hLNDy-117" value="" style="shape=link;html=1;rounded=0;entryX=0;entryY=1;entryDx=0;entryDy=0;exitX=1;exitY=0;exitDx=0;exitDy=0;" edge="1" parent="1" source="L45TqJN0GfBYJ_7hLNDy-115" target="L45TqJN0GfBYJ_7hLNDy-32">
          <mxGeometry relative="1" as="geometry">
            <mxPoint x="465" y="484" as="sourcePoint" />
            <mxPoint x="515" y="550" as="targetPoint" />
            <Array as="points" />
          </mxGeometry>
        </mxCell>
        <mxCell id="L45TqJN0GfBYJ_7hLNDy-118" value="" style="shape=link;html=1;rounded=0;entryX=1;entryY=0;entryDx=0;entryDy=0;exitX=0;exitY=1;exitDx=0;exitDy=0;" edge="1" parent="1" source="L45TqJN0GfBYJ_7hLNDy-115" target="L45TqJN0GfBYJ_7hLNDy-1">
          <mxGeometry relative="1" as="geometry">
            <mxPoint x="475" y="494" as="sourcePoint" />
            <mxPoint x="525" y="560" as="targetPoint" />
            <Array as="points" />
          </mxGeometry>
        </mxCell>
        <mxCell id="L45TqJN0GfBYJ_7hLNDy-134" value="" style="shape=link;html=1;rounded=0;entryX=0;entryY=0.5;entryDx=0;entryDy=0;exitX=0.5;exitY=1;exitDx=0;exitDy=0;" edge="1" parent="1" source="L45TqJN0GfBYJ_7hLNDy-49" target="L45TqJN0GfBYJ_7hLNDy-32">
          <mxGeometry relative="1" as="geometry">
            <mxPoint x="215" y="125" as="sourcePoint" />
            <mxPoint x="280" y="394" as="targetPoint" />
            <Array as="points">
              <mxPoint x="290" y="600" />
            </Array>
          </mxGeometry>
        </mxCell>
        <mxCell id="L45TqJN0GfBYJ_7hLNDy-140" value="N" style="text;html=1;strokeColor=none;fillColor=none;align=center;verticalAlign=middle;whiteSpace=wrap;rounded=0;" vertex="1" parent="1">
          <mxGeometry x="530" y="610" width="30" height="20" as="geometry" />
        </mxCell>
        <mxCell id="L45TqJN0GfBYJ_7hLNDy-142" value="N" style="text;html=1;strokeColor=none;fillColor=none;align=center;verticalAlign=middle;whiteSpace=wrap;rounded=0;" vertex="1" parent="1">
          <mxGeometry x="515" y="580" width="30" height="20" as="geometry" />
        </mxCell>
        <mxCell id="L45TqJN0GfBYJ_7hLNDy-143" value="N" style="text;html=1;strokeColor=none;fillColor=none;align=center;verticalAlign=middle;whiteSpace=wrap;rounded=0;" vertex="1" parent="1">
          <mxGeometry x="874" y="140" width="30" height="20" as="geometry" />
        </mxCell>
        <mxCell id="L45TqJN0GfBYJ_7hLNDy-144" value="N" style="text;html=1;strokeColor=none;fillColor=none;align=center;verticalAlign=middle;whiteSpace=wrap;rounded=0;" vertex="1" parent="1">
          <mxGeometry x="150" y="120" width="30" height="20" as="geometry" />
        </mxCell>
        <mxCell id="L45TqJN0GfBYJ_7hLNDy-145" value="N" style="text;html=1;strokeColor=none;fillColor=none;align=center;verticalAlign=middle;whiteSpace=wrap;rounded=0;" vertex="1" parent="1">
          <mxGeometry x="720" y="327" width="30" height="20" as="geometry" />
        </mxCell>
        <mxCell id="L45TqJN0GfBYJ_7hLNDy-146" value="N" style="text;html=1;strokeColor=none;fillColor=none;align=center;verticalAlign=middle;whiteSpace=wrap;rounded=0;" vertex="1" parent="1">
          <mxGeometry x="1130" y="330" width="30" height="20" as="geometry" />
        </mxCell>
        <mxCell id="L45TqJN0GfBYJ_7hLNDy-147" value="1" style="text;html=1;strokeColor=none;fillColor=none;align=center;verticalAlign=middle;whiteSpace=wrap;rounded=0;" vertex="1" parent="1">
          <mxGeometry x="230" y="740" width="30" height="20" as="geometry" />
        </mxCell>
        <mxCell id="L45TqJN0GfBYJ_7hLNDy-148" value="1" style="text;html=1;strokeColor=none;fillColor=none;align=center;verticalAlign=middle;whiteSpace=wrap;rounded=0;" vertex="1" parent="1">
          <mxGeometry x="260" y="770" width="30" height="20" as="geometry" />
        </mxCell>
        <mxCell id="L45TqJN0GfBYJ_7hLNDy-149" value="1" style="text;html=1;strokeColor=none;fillColor=none;align=center;verticalAlign=middle;whiteSpace=wrap;rounded=0;" vertex="1" parent="1">
          <mxGeometry x="180" y="120" width="30" height="20" as="geometry" />
        </mxCell>
      </root>
    </mxGraphModel>
  </diagram>
</mxfile>
